<svg height="496pt" viewBox="0 0 496 496" width="496pt" xmlns="http://www.w3.org/2000/svg"><path d="m64 400c-17.648438 0-32 14.351562-32 32s14.351562 32 32 32 32-14.351562 32-32-14.351562-32-32-32zm0 48c-8.824219 0-16-7.175781-16-16s7.175781-16 16-16 16 7.175781 16 16-7.175781 16-16 16zm0 0"/><path d="m448 0h-96v72h-32.40625c-4.027344-40.367188-38.179688-72-79.59375-72s-75.566406 31.632812-79.59375 72h-32.40625v-8c0-35.289062-28.710938-64-64-64s-64 28.710938-64 64v368c0 35.289062 28.710938 64 64 64h384c26.472656 0 48-21.527344 48-48v-400c0-26.472656-21.527344-48-48-48zm-272 80c0-35.289062 28.710938-64 64-64s64 28.710938 64 64v2.199219c0 12.679687-3.71875 24.953125-10.753906 35.503906l-47.46875 71.199219c-2.585938 3.875-8.976563 3.875-11.5625 0l-47.472656-71.199219c-7.023438-10.542969-10.742188-22.824219-10.742188-35.503906zm-48 112.648438 19.398438 15.519531c6.3125 5.046875 14.25 7.832031 22.335937 7.832031h5.378906c4.144531 0 8.109375 1.273438 11.480469 3.679688l37.148438 26.535156c5.167968 3.6875 8.257812 9.695312 8.257812 16.066406v21.71875c0 8.511719-5.425781 16.046875-13.496094 18.734375l-10.0625 3.355469c-14.617187 4.871094-24.441406 18.503906-24.441406 33.910156 0 8.511719-5.425781 16.046875-13.503906 18.742188l-24.734375 8.242187c-2.042969.671875-4.144531 1.015625-6.265625 1.015625h-11.496094zm-112-128.648438c0-26.472656 21.527344-48 48-48s48 21.527344 48 48v325.808594c-11.734375-13.335938-28.878906-21.808594-48-21.808594s-36.265625 8.472656-48 21.808594zm0 368c0-26.472656 21.527344-48 48-48s48 21.527344 48 48-21.527344 48-48 48-48-21.527344-48-48zm112 0v-48h11.496094c3.832031 0 7.632812-.617188 11.3125-1.832031l24.75-8.246094c14.617187-4.882813 24.441406-18.515625 24.441406-33.921875 0-8.511719 5.425781-16.046875 13.496094-18.734375l10.0625-3.355469c14.617187-4.871094 24.441406-18.503906 24.441406-33.910156v-21.71875c0-11.519531-5.601562-22.402344-14.976562-29.089844l-37.136719-26.527344c-6.085938-4.359374-13.269531-6.664062-20.773438-6.664062h-5.378906c-4.46875 0-8.847656-1.535156-12.335937-4.328125l-29.398438-23.519531v-84.152344h32.425781c1 13.761719 5.300781 27.015625 13.007813 38.574219l47.46875 71.203125c4.273437 6.398437 11.410156 10.222656 19.097656 10.222656s14.824219-3.824219 19.097656-10.214844l47.46875-71.199218c7.707032-11.5625 12.019532-24.816407 13.007813-38.578126h32.425781v232h-32.992188c-11.902343 0-23.273437 5.6875-30.414062 15.207032l-8.992188 11.984375c-4.90625 6.535156-7.601562 14.632812-7.601562 22.808593v21c0 7.6875-4.097656 14.921876-10.6875 18.871094l-10.855469 6.511719c-11.386719 6.832031-18.457031 19.328125-18.457031 32.601563 0 6.886718-3.296875 13.480468-8.808594 17.617187l-17.855468 13.390625h-99.144532c13.335938-11.734375 21.808594-28.878906 21.808594-48zm320 48h-215.992188l.792969-.59375c9.511719-7.148438 15.199219-18.511719 15.199219-30.414062 0-7.6875 4.097656-14.921876 10.6875-18.871094l10.855469-6.511719c11.386719-6.832031 18.457031-19.328125 18.457031-32.601563v-21c0-4.808593 1.519531-9.367187 4.40625-13.207031l8.992188-11.992187c4.128906-5.519532 10.714843-8.808594 17.609374-8.808594h32.992188v80h96c17.648438 0 32 14.351562 32 32s-14.351562 32-32 32zm32-67.753906c-8.496094-7.605469-19.71875-12.246094-32-12.246094h-80v-384h80c17.648438 0 32 14.351562 32 32zm0 0"/><path d="m240 128c26.472656 0 48-21.527344 48-48s-21.527344-48-48-48-48 21.527344-48 48 21.527344 48 48 48zm0-80c17.648438 0 32 14.351562 32 32s-14.351562 32-32 32-32-14.351562-32-32 14.351562-32 32-32zm0 0"/><path d="m320 352h16v16h-16zm0 0"/><path d="m288 448h16v16h-16zm0 0"/><path d="m352 432h16v16h-16zm0 0"/><path d="m160 240h16v16h-16zm0 0"/><path d="m192 272h16v16h-16zm0 0"/><path d="m144 304h16v16h-16zm0 0"/></svg>